<?xml version="1.0" encoding="UTF-8" standalone="no"?>
<!-- Generator: Gravit.io -->
<svg xmlns="http://www.w3.org/2000/svg" xmlns:xlink="http://www.w3.org/1999/xlink" style="isolation:isolate" viewBox="0 0 512.145 512.145" width="512.145pt" height="512.145pt"><defs><clipPath id="_clipPath_XJH3Yjl6MvtkKhlk0WevESY0XQ4ROKGg"><rect width="512.145" height="512.145"/></clipPath></defs><g clip-path="url(#_clipPath_XJH3Yjl6MvtkKhlk0WevESY0XQ4ROKGg)"><clipPath id="_clipPath_qUxcdyv7mW5hwnLib0DbVPZizMgpCNox"><rect x="0" y="0" width="512.145" height="512.145" transform="matrix(1,0,0,1,0,0)" fill="rgb(255,255,255)"/></clipPath><g clip-path="url(#_clipPath_qUxcdyv7mW5hwnLib0DbVPZizMgpCNox)"><g><g style="mix-blend-mode:normal;" opacity="0.77"><path d="M 42.379 0 L 469.766 0 C 493.156 0 512.145 18.989 512.145 42.379 L 512.145 469.766 C 512.145 493.156 493.156 512.145 469.766 512.145 L 42.379 512.145 C 18.989 512.145 0 493.156 0 469.766 L 0 42.379 C 0 18.989 18.989 0 42.379 0 Z" style="stroke:none;fill:#EFC050;stroke-miterlimit:10;"/></g><g><g><g><path d=" M 485.718 141.252 C 485.599 109.546 459.8 83.94 428.094 84.059 C 405.539 84.143 385.123 97.428 375.91 118.016 L 326.897 109.82 L 322.104 138.137 L 371.36 146.361 C 373.277 167.719 386.938 186.228 406.781 194.355 L 392.802 299.8 C 364.009 303.185 342.282 327.543 342.197 356.534 L 342.197 356.75 L 176.73 400.38 C 167.905 384.647 152.166 374.006 134.277 371.676 L 104.969 137.118 C 118.912 131.566 130.133 120.786 136.243 107.079 L 180.605 114.485 L 185.327 86.182 L 140.749 78.734 C 138.04 47.223 110.298 23.876 78.787 26.587 C 47.277 29.297 23.93 57.038 26.641 88.548 C 28.952 115.424 49.707 137.042 76.466 140.448 L 105.802 374.963 C 76.318 386.623 61.868 419.976 73.528 449.46 C 85.189 478.944 118.542 493.394 148.026 481.734 C 169.95 473.063 184.344 451.872 184.323 428.295 L 184.323 428.08 L 349.789 384.449 C 365.201 412.067 400.083 421.961 427.701 406.549 C 455.318 391.137 465.212 356.255 449.8 328.637 C 443.427 317.217 433.336 308.322 421.205 303.431 L 435.184 197.986 C 463.949 194.568 485.638 170.219 485.718 141.252 Z  M 83.857 112.547 C 68.004 112.547 55.153 99.696 55.153 83.843 C 55.153 67.99 68.004 55.139 83.857 55.139 C 99.71 55.139 112.562 67.99 112.562 83.843 C 112.562 99.696 99.71 112.547 83.857 112.547 Z  M 126.914 457 C 111.061 457 98.21 444.148 98.21 428.295 C 98.21 412.442 111.061 399.591 126.914 399.591 C 142.767 399.591 155.618 412.442 155.618 428.295 C 155.618 444.148 142.767 457 126.914 457 Z  M 428.31 356.534 C 428.31 372.387 415.458 385.239 399.605 385.239 C 383.753 385.239 370.901 372.387 370.901 356.534 C 370.901 340.682 383.753 327.83 399.605 327.83 C 415.458 327.83 428.31 340.682 428.31 356.534 Z  M 399.605 141.252 C 399.605 125.399 412.457 112.547 428.31 112.547 C 444.163 112.547 457.014 125.399 457.014 141.252 C 457.014 157.105 444.163 169.956 428.31 169.956 C 412.457 169.956 399.605 157.105 399.605 141.252 Z " fill="rgb(0,0,0)"/><rect x="266.913" y="102.02" width="31.992" height="31.992" transform="matrix(0.986,0.165,-0.165,0.986,23.358,-45.075)" fill="rgb(0,0,0)"/><rect x="210.746" y="91.084" width="31.99" height="31.99" transform="matrix(0.986,0.165,-0.165,0.986,20.783,-35.955)" fill="rgb(0,0,0)"/></g></g></g></g></g></g></svg>