<?xml version="1.0" encoding="UTF-8" standalone="no"?>
<!-- Generator: Gravit.io -->
<svg xmlns="http://www.w3.org/2000/svg" xmlns:xlink="http://www.w3.org/1999/xlink" style="isolation:isolate" viewBox="0 0 1792 1792" width="1792pt" height="1792pt"><defs><clipPath id="_clipPath_Hne6KnRMPGjhCTZ5cXCuIlpj87rOExpH"><rect width="1792" height="1792"/></clipPath></defs><g clip-path="url(#_clipPath_Hne6KnRMPGjhCTZ5cXCuIlpj87rOExpH)"><clipPath id="_clipPath_pIM6YlV9sfq6uX9DLw6bBtS7ZDiiA94c"><rect x="0" y="0" width="1792" height="1792" transform="matrix(1,0,0,1,0,0)" fill="rgb(255,255,255)"/></clipPath><g clip-path="url(#_clipPath_pIM6YlV9sfq6uX9DLw6bBtS7ZDiiA94c)"><g><g style="mix-blend-mode:normal;" opacity="0.83"><path d="M 113.805 0 L 1678.195 0 C 1741.006 0 1792 50.994 1792 113.805 L 1792 1678.195 C 1792 1741.006 1741.006 1792 1678.195 1792 L 113.805 1792 C 50.994 1792 0 1741.006 0 1678.195 L 0 113.805 C 0 50.994 50.994 0 113.805 0 Z" style="stroke:none;fill:#EFC050;stroke-miterlimit:10;"/></g><path d=" M 1482.292 192.45 Q 1482.292 431.547 1384.729 615.221 Q 1287.167 798.895 1140.594 896 Q 1287.167 993.105 1384.729 1176.779 Q 1482.292 1360.453 1482.292 1599.55 L 1570.236 1599.55 Q 1583.061 1599.55 1591.306 1607.795 Q 1599.55 1616.04 1599.55 1628.865 L 1599.55 1687.494 Q 1599.55 1700.319 1591.306 1708.564 Q 1583.061 1716.809 1570.236 1716.809 L 221.764 1716.809 Q 208.939 1716.809 200.694 1708.564 Q 192.45 1700.319 192.45 1687.494 L 192.45 1628.865 Q 192.45 1616.04 200.694 1607.795 Q 208.939 1599.55 221.764 1599.55 L 309.708 1599.55 Q 309.708 1360.453 407.271 1176.779 Q 504.833 993.105 651.406 896 Q 504.833 798.895 407.271 615.221 Q 309.708 431.547 309.708 192.45 L 221.764 192.45 Q 208.939 192.45 200.694 184.205 Q 192.45 175.96 192.45 163.135 L 192.45 104.506 Q 192.45 91.681 200.694 83.436 Q 208.939 75.191 221.764 75.191 L 1570.236 75.191 Q 1583.061 75.191 1591.306 83.436 Q 1599.55 91.681 1599.55 104.506 L 1599.55 163.135 Q 1599.55 175.96 1591.306 184.205 Q 1583.061 192.45 1570.236 192.45 L 1482.292 192.45 L 1482.292 192.45 Z  M 993.105 841.035 Q 1063.643 814.469 1129.601 756.298 Q 1195.559 698.126 1248.233 616.595 Q 1300.908 535.064 1332.971 424.218 Q 1365.034 313.372 1365.034 192.45 L 426.966 192.45 Q 426.966 313.372 459.029 424.218 Q 491.092 535.064 543.767 616.595 Q 596.441 698.126 662.399 756.298 Q 728.357 814.469 798.895 841.035 Q 816.301 847.448 826.836 862.563 Q 837.371 877.678 837.371 896 Q 837.371 914.322 826.836 929.437 Q 816.301 944.552 798.895 950.965 Q 673.392 997.685 575.372 1130.517 L 1216.628 1130.517 Q 1118.608 997.685 993.105 950.965 Q 975.699 944.552 965.164 929.437 Q 954.629 914.322 954.629 896 Q 954.629 877.678 965.164 862.563 Q 975.699 847.448 993.105 841.035 Z " fill="rgb(0,0,0)"/></g></g></g></svg>