<?xml version="1.0" encoding="UTF-8" standalone="no"?>
<!-- Generator: Gravit.io -->
<svg xmlns="http://www.w3.org/2000/svg" xmlns:xlink="http://www.w3.org/1999/xlink" style="isolation:isolate" viewBox="0 0 512.025 512.025" width="512.025pt" height="512.025pt"><defs><clipPath id="_clipPath_4B1r9YBMWjeCdG6TcVDHgR1DraIG67El"><rect width="512.025" height="512.025"/></clipPath></defs><g clip-path="url(#_clipPath_4B1r9YBMWjeCdG6TcVDHgR1DraIG67El)"><clipPath id="_clipPath_rQgjEsE5mk0q8RyD3BZSYxnhIDAHiA5W"><rect x="0" y="0" width="512.025" height="512.025" transform="matrix(1,0,0,1,0,0)" fill="rgb(255,255,255)"/></clipPath><g clip-path="url(#_clipPath_rQgjEsE5mk0q8RyD3BZSYxnhIDAHiA5W)"><g><g style="mix-blend-mode:normal;" opacity="0.81"><path d="M 45.419 0 L 466.607 0 C 491.674 0 512.026 20.352 512.026 45.419 L 512.026 466.607 C 512.026 491.674 491.674 512.026 466.607 512.026 L 45.419 512.026 C 20.352 512.026 0 491.674 0 466.607 L 0 45.419 C 0 20.352 20.352 0 45.419 0 Z" style="stroke:none;fill:#EFC050;stroke-miterlimit:10;"/></g><g><g><g><path d=" M 228.242 16.484 L 78.537 16.484 C 70.268 16.484 63.566 23.186 63.566 31.454 L 63.566 480.571 C 63.566 488.839 70.268 495.541 78.537 495.541 L 228.242 495.541 C 236.511 495.541 243.213 488.839 243.213 480.571 L 243.213 31.454 C 243.213 23.186 236.51 16.484 228.242 16.484 Z  M 213.272 465.6 L 93.507 465.6 L 93.507 420.689 L 168.36 420.689 L 168.36 390.748 L 93.507 390.748 L 93.507 345.836 L 138.419 345.836 L 138.419 315.895 L 93.507 315.895 L 93.507 270.983 L 168.36 270.983 L 168.36 241.042 L 93.507 241.042 L 93.507 196.13 L 138.419 196.13 L 138.419 166.189 L 93.507 166.189 L 93.507 121.277 L 168.36 121.277 L 168.36 91.336 L 93.507 91.336 L 93.507 46.425 L 213.272 46.425 L 213.272 465.6 L 213.272 465.6 Z " fill="rgb(0,0,0)"/><path d=" M 427.351 395.239 L 377.948 444.492 L 377.948 67.533 L 427.201 116.786 L 448.309 95.678 L 373.457 20.825 C 367.617 15.02 358.187 15.02 352.348 20.825 L 277.495 95.678 L 298.604 116.786 L 348.007 67.533 L 348.007 444.492 L 298.753 395.239 L 277.645 416.347 L 352.498 491.2 C 358.337 497.005 367.767 497.005 373.606 491.2 L 448.459 416.347 L 427.351 395.239 L 427.351 395.239 Z " fill="rgb(0,0,0)"/></g></g></g></g></g></g></svg>