<?xml version="1.0" encoding="UTF-8" standalone="no"?>
<!-- Generator: Gravit.io -->
<svg xmlns="http://www.w3.org/2000/svg" xmlns:xlink="http://www.w3.org/1999/xlink" style="isolation:isolate" viewBox="0 0 68 85" width="68pt" height="85pt"><defs><clipPath id="_clipPath_Ztm7Pk0pbbjoU6Z9UHkFDqXP0KGViwbC"><rect width="68" height="85"/></clipPath></defs><g clip-path="url(#_clipPath_Ztm7Pk0pbbjoU6Z9UHkFDqXP0KGViwbC)"><path d=" M 59 64 L 59 64 L 67 64 C 67.6 64 68 64.4 68 65 L 68 67 C 68 67.6 67.6 68 67 68 L 1 68 C 0.4 68 0 67.6 0 67 L 0 65 C 0 64.4 0.4 64 1 64 L 9 64 L 9 44 C 9 43.5 9.2 43.1 9.4 42.7 L 22 27.3 L 22 22 L 20 22 C 19.4 22 19 21.6 19 21 L 19 19 C 19 18.4 19.4 18 20 18 L 22 18 L 22 16 C 22 15.4 22.4 15 23 15 L 25 15 C 25.6 15 26 15.4 26 16 L 26 18 L 28 18 C 28.6 18 29 18.4 29 19 L 29 21 C 29 21.6 28.6 22 28 22 L 26 22 L 26 27.3 L 38.6 42.7 C 38.9 43.1 39 43.5 39 44 L 39 64 L 43 64 L 43 14 C 43 13.7 43.1 13.4 43.2 13.1 L 49.2 1.1 C 49.9 -0.4 52 -0.4 52.8 1.1 L 58.8 13.1 C 58.9 13.4 59 13.7 59 14 L 59 64 L 59 64 Z  M 21 63 L 21 53 C 21 51.4 22.3 50 24 50 C 25.7 50 27 51.3 27 53 L 27 63 C 27 63.6 27.4 64 28 64 L 30 64 C 30.6 64 31 63.6 31 63 L 31 53 C 31 49.1 27.9 46 24 46 C 20.1 46 17 49.1 17 53 L 17 63 C 17 63.6 17.4 64 18 64 L 20 64 C 20.6 64 21 63.6 21 63 Z  M 49 17 L 49 25 C 49 25.6 49.4 26 50 26 L 52 26 C 52.6 26 53 25.6 53 25 L 53 17 C 53 16.4 52.6 16 52 16 L 50 16 C 49.4 16 49 16.4 49 17 Z " fill="rgb(220,4,4)"/></g></svg>