<?xml version="1.0" encoding="UTF-8" standalone="no"?>
<!-- Generator: Gravit.io -->
<svg xmlns="http://www.w3.org/2000/svg" xmlns:xlink="http://www.w3.org/1999/xlink" style="isolation:isolate" viewBox="0 0 100 125" width="100pt" height="125pt"><defs><clipPath id="_clipPath_TZHldFmjPSCLd7u7AUyBaqCDfmMwVj4Y"><rect width="100" height="125"/></clipPath></defs><g clip-path="url(#_clipPath_TZHldFmjPSCLd7u7AUyBaqCDfmMwVj4Y)"><path d=" M 31 12.038 L 31 32.038 L 8 32.038 L 8 88.038 L 41 88.038 L 41 64.038 L 59 64.038 L 59 88.038 L 92 88.038 L 92 32.038 L 69 32.038 L 69 12.038 L 31 12.038 L 31 12.038 Z  M 46 17.038 L 54 17.038 L 54 24.038 L 61 24.038 L 61 32.038 L 54 32.038 L 54 39.038 L 46 39.038 L 46 32.038 L 39 32.038 L 39 24.038 L 46 24.038 L 46 17.038 Z  M 16 44.038 L 34 44.038 L 34 56.038 L 16 56.038 L 16 44.038 Z  M 41 44.038 L 59 44.038 L 59 56.038 L 41 56.038 L 41 44.038 Z  M 66 44.038 L 84 44.038 L 84 56.038 L 66 56.038 L 66 44.038 Z  M 16 64.038 L 34 64.038 L 34 76.038 L 16 76.038 L 16 64.038 L 16 64.038 Z  M 66 64.038 L 84 64.038 L 84 76.038 L 66 76.038 L 66 64.038 L 66 64.038 Z " fill="rgb(27,136,23)"/></g></svg>