<?xml version="1.0" encoding="UTF-8" standalone="no"?>
<!-- Generator: Gravit.io -->
<svg xmlns="http://www.w3.org/2000/svg" xmlns:xlink="http://www.w3.org/1999/xlink" style="isolation:isolate" viewBox="0 0 16 20" width="16pt" height="20pt"><defs><clipPath id="_clipPath_0GHwfEf8rqEw0Wxxg0YicKU36oHXzuXr"><rect width="16" height="20"/></clipPath></defs><g clip-path="url(#_clipPath_0GHwfEf8rqEw0Wxxg0YicKU36oHXzuXr)"><path d=" M 8.6 2.7 C 8.5 2.7 8.5 2.7 8.6 2.7 L 8.5 2 L 9.5 2 C 9.8 2 10 1.8 10 1.5 C 10 1.2 9.8 1 9.5 1 L 8.5 1 L 8.5 0.5 C 8.5 0.2 8.3 0 8 0 C 7.7 0 7.5 0.2 7.5 0.5 L 7.5 1 L 6.5 1 C 6.2 1 6 1.2 6 1.5 C 6 1.8 6.2 2 6.5 2 L 7.5 2 L 7.5 2.7 C 7.5 2.7 7.5 2.7 7.4 2.7 L 0 7.7 L 1.1 9.4 L 8 4.7 L 14.9 9.3 L 16 7.7 L 8.6 2.7 L 8.6 2.7 Z " fill="rgb(247,135,47)"/><path d=" M 2 9.9 L 2 15.5 C 2 15.8 2.2 16 2.5 16 L 6 16 L 6 10.5 C 6 10.2 6.2 10 6.5 10 L 9.5 10 C 9.8 10 10 10.2 10 10.5 L 10 16 L 13.5 16 C 13.8 16 14 15.8 14 15.5 L 14 9.9 L 8 5.9 L 2 9.9 L 2 9.9 Z " fill="rgb(247,135,47)"/></g></svg>