<?xml version="1.0" encoding="UTF-8" standalone="no"?>
<!-- Generator: Gravit.io -->
<svg xmlns="http://www.w3.org/2000/svg" xmlns:xlink="http://www.w3.org/1999/xlink" style="isolation:isolate" viewBox="0 0 60 75" width="60pt" height="75pt"><defs><clipPath id="_clipPath_zycgIRyo1pi5wQ4IWIccXAQsejplQ6oj"><rect width="60" height="75"/></clipPath></defs><g clip-path="url(#_clipPath_zycgIRyo1pi5wQ4IWIccXAQsejplQ6oj)"><g><g><path d=" M 59.61 38.208 L 46.61 28.207 C 46.435 28.073 46.221 28 46 28 L 17 28 L 17 26 L 18 26 C 18.007 25.999 18.013 26 18.02 26 C 18.572 26 19.02 25.552 19.02 25 C 19.02 24.807 18.965 24.627 18.871 24.475 L 12.936 8.649 C 12.79 8.259 12.417 8 12 8 L 11 8 L 11 5 L 13 5 C 13.552 5 14 4.552 14 4 C 14 3.448 13.552 3 13 3 L 11 3 L 11 1 C 11 0.448 10.552 0 10 0 C 9.448 0 9 0.448 9 1 L 9 3 L 7 3 C 6.448 3 6 3.448 6 4 C 6 4.552 6.448 5 7 5 L 9 5 L 9 8 L 8 8 C 7.583 8 7.21 8.259 7.063 8.649 L 1.063 24.649 C 0.949 24.956 0.991 25.3 1.178 25.57 C 1.365 25.839 1.672 26 2 26 L 3 26 L 3 28 L 2 28 C 1.502 28 1.081 28.366 1.01 28.858 L 0.01 35.858 C -0.031 36.145 0.055 36.436 0.245 36.655 C 0.435 36.874 0.71 37 1 37 L 1 59 C 1 59.552 1.448 60 2 60 L 59 60 C 59.552 60 60 59.552 60 59 L 60 39 C 60 38.689 59.856 38.396 59.61 38.208 L 59.61 38.208 Z  M 10 15 C 12.206 15 14 16.794 14 19 C 14 21.206 12.206 23 10 23 C 7.794 23 6 21.206 6 19 C 6 16.794 7.794 15 10 15 L 10 15 Z  M 5 26 L 15 26 L 15 28 L 5 28 L 5 26 Z  M 3 37 L 16 37 L 16 58 L 15 58 L 15 43.5 C 15 40.467 12.533 38 9.5 38 C 6.467 38 4 40.467 4 43.5 L 4 58 L 3 58 L 3 37 L 3 37 Z  M 58 58 L 18 58 L 18 37 L 54.76 37 L 58 39.492 L 58 58 L 58 58 Z " fill-rule="evenodd" fill="rgb(27,136,23)"/><path d=" M 23 38 C 20.794 38 19 39.794 19 42 L 19 56 C 19 56.552 19.448 57 20 57 L 26 57 C 26.552 57 27 56.552 27 56 L 27 42 C 27 39.794 25.206 38 23 38 Z " fill-rule="evenodd" fill="rgb(27,136,23)"/><path d=" M 33 38 C 30.794 38 29 39.794 29 42 L 29 56 C 29 56.552 29.448 57 30 57 L 36 57 C 36.552 57 37 56.552 37 56 L 37 42 C 37 39.794 35.206 38 33 38 Z " fill-rule="evenodd" fill="rgb(27,136,23)"/><path d=" M 43 38 C 40.794 38 39 39.794 39 42 L 39 56 C 39 56.552 39.448 57 40 57 L 46 57 C 46.552 57 47 56.552 47 56 L 47 42 C 47 39.794 45.206 38 43 38 Z " fill-rule="evenodd" fill="rgb(27,136,23)"/><path d=" M 53 38 C 50.794 38 49 39.794 49 42 L 49 56 C 49 56.552 49.448 57 50 57 L 56 57 C 56.552 57 57 56.552 57 56 L 57 42 C 57 39.794 55.206 38 53 38 Z " fill-rule="evenodd" fill="rgb(27,136,23)"/></g></g></g></svg>