<?xml version="1.0" encoding="iso-8859-1"?>
<!-- Generator: Adobe Illustrator 19.0.0, SVG Export Plug-In . SVG Version: 6.00 Build 0)  -->
<svg version="1.1" id="Capa_1" xmlns="http://www.w3.org/2000/svg" xmlns:xlink="http://www.w3.org/1999/xlink" x="0px" y="0px"
	 viewBox="0 0 511.999 511.999" style="enable-background:new 0 0 511.999 511.999;" xml:space="preserve">
<g>
	<g>
		<path d="M509.971,430.494l-210.367-364c-2.68-4.638-7.63-7.494-12.986-7.494h-61.234c-5.356,0-10.306,2.856-12.986,7.494
			l-210.367,364C-3.745,440.487,3.493,453,15.017,453h481.968C508.524,453,515.738,440.475,509.971,430.494z M234.039,89h43.924
			l130.359,225.563L285.791,195.409c-5.822-5.661-15.091-5.661-20.913,0l-52.71,51.257l-44.334-43.112L234.039,89z M41.009,423
			l111.343-192.657l49.36,48c5.82,5.661,15.09,5.662,20.913,0l52.71-51.257l188.2,183.011L470.991,423H41.009z"/>
	</g>
</g>
<g>
</g>
<g>
</g>
<g>
</g>
<g>
</g>
<g>
</g>
<g>
</g>
<g>
</g>
<g>
</g>
<g>
</g>
<g>
</g>
<g>
</g>
<g>
</g>
<g>
</g>
<g>
</g>
<g>
</g>
</svg>
